<svg preserveAspectRatio="none" overflow="visible" style="display: block;" width="32" height="64" viewBox="0 0 32 64" fill="none" xmlns="http://www.w3.org/2000/svg">
<path id="progress" d="M5.08584e-07 0C4.2023 -1.83688e-07 8.36345 0.827704 12.2459 2.43585C16.1283 4.04401 19.6559 6.40111 22.6274 9.37258C25.5989 12.3441 27.956 15.8717 29.5641 19.7541C31.1723 23.6365 32 27.7977 32 32C32 36.2023 31.1723 40.3635 29.5641 44.2459C27.956 48.1283 25.5989 51.6559 22.6274 54.6274C19.6559 57.5989 16.1283 59.956 12.2459 61.5641C8.36345 63.1723 4.2023 64 5.08584e-07 64L7.88337e-07 57.6C3.36184 57.6 6.69076 56.9378 9.7967 55.6513C12.9026 54.3648 15.7248 52.4791 18.1019 50.1019C20.4791 47.7248 22.3648 44.9026 23.6513 41.7967C24.9378 38.6908 25.6 35.3618 25.6 32C25.6 28.6382 24.9378 25.3092 23.6513 22.2033C22.3648 19.0974 20.4791 16.2752 18.1019 13.8981C15.7248 11.5209 12.9026 9.6352 9.7967 8.34868C6.69076 7.06216 3.36184 6.4 7.88337e-07 6.4L5.08584e-07 0Z" fill="#0E8345"/>
</svg>
